# xmcd
#
# Track frame offsets:
#	150
#	15027
#	26395
#	42753
#	61039
#	75647
#	90917
#	106517
#	121378
#	139415
#	156705
#	172514
#	185741
#	200810
#	219858
#
# Disc length: 3131 seconds
#
# Revision: 1
# Processed by: cddbd v1.5.2PL0 Copyright (c) Steve Scherf et al.
# Submitted via: audiograbber 1.83.01
#
DISCID=b10c390f
DTITLE=Bellamy Brothers - Let Your Love Flow - 20 Years Of Hits - CD2
DYEAR=1994
DGENRE=Country
TTITLE0=Big Love
TTITLE1=Country Rap
TTITLE2=Santa Fe
TTITLE3=I'll Give You All My Love Tonight
TTITLE4=Rebels Without A Clue
TTITLE5=You'll Never Be Sorry
TTITLE6=Cowboy Beat
TTITLE7=Can I Come On Home To You
TTITLE8=She's Gone With The Wind
TTITLE9=Hard Way To Make An Easy Living
TTITLE10=Rip Off The Knob
TTITLE11=Not
TTITLE12=On A Summer Night
TTITLE13=Hemmingway Hideaway
TTITLE14=Nobody's Perfect
EXTD=
EXTT0=
EXTT1=
EXTT2=
EXTT3=
EXTT4=
EXTT5=
EXTT6=
EXTT7=
EXTT8=
EXTT9=
EXTT10=
EXTT11=
EXTT12=
EXTT13=
EXTT14=
PLAYORDER=
